<svg xmlns="http://www.w3.org/2000/svg" xmlns:xlink="http://www.w3.org/1999/xlink" width="500" zoomAndPan="magnify" viewBox="0 0 375 374.999991" height="500" preserveAspectRatio="xMidYMid meet" version="1.0"><defs><clipPath id="da50647fa5"><path d="M 17.96875 17.96875 L 356.96875 17.96875 L 356.96875 356 L 17.96875 356 Z M 17.96875 17.96875 " clip-rule="nonzero"/></clipPath><clipPath id="357e57ed96"><path d="M 111 80 L 267 80 L 267 356.96875 L 111 356.96875 Z M 111 80 " clip-rule="nonzero"/></clipPath></defs><g clip-path="url(#da50647fa5)"><path fill="#233dff" d="M 357.074219 187.527344 C 357.074219 93.875 281.164062 17.96875 187.527344 17.96875 C 93.890625 17.96875 17.96875 93.875 17.96875 187.527344 C 17.96875 267.042969 72.707031 333.773438 146.5625 352.097656 L 146.5625 239.347656 L 111.589844 239.347656 L 111.589844 187.527344 L 146.5625 187.527344 L 146.5625 165.203125 C 146.5625 107.496094 172.675781 80.742188 229.332031 80.742188 C 240.078125 80.742188 258.613281 82.84375 266.191406 84.957031 L 266.191406 131.921875 C 262.1875 131.496094 255.234375 131.28125 246.605469 131.28125 C 218.800781 131.28125 208.058594 141.8125 208.058594 169.191406 L 208.058594 187.511719 L 263.4375 187.511719 L 253.925781 239.332031 L 208.058594 239.332031 L 208.058594 355.824219 C 292.015625 345.691406 357.074219 274.195312 357.074219 187.511719 Z M 357.074219 187.527344 " fill-opacity="1" fill-rule="nonzero"/></g><g clip-path="url(#357e57ed96)"><path fill="#ffffff" d="M 253.941406 239.332031 L 263.453125 187.511719 L 208.074219 187.511719 L 208.074219 169.191406 C 208.074219 141.8125 218.816406 131.28125 246.621094 131.28125 C 255.25 131.28125 262.203125 131.496094 266.207031 131.921875 L 266.207031 84.957031 C 258.628906 82.859375 240.089844 80.742188 229.347656 80.742188 C 172.691406 80.742188 146.578125 107.496094 146.578125 165.203125 L 146.578125 187.527344 L 111.605469 187.527344 L 111.605469 239.347656 L 146.578125 239.347656 L 146.578125 352.097656 C 159.695312 355.351562 173.40625 357.089844 187.542969 357.089844 C 194.5 357.089844 201.347656 356.660156 208.089844 355.839844 L 208.089844 239.347656 L 253.957031 239.347656 Z M 253.941406 239.332031 " fill-opacity="1" fill-rule="nonzero"/></g></svg>