<svg xmlns="http://www.w3.org/2000/svg" xmlns:xlink="http://www.w3.org/1999/xlink" width="500" zoomAndPan="magnify" viewBox="0 0 375 374.999991" height="500" preserveAspectRatio="xMidYMid meet" version="1.0"><defs><clipPath id="c71f119e04"><path d="M 12.464844 12.464844 L 362.535156 12.464844 L 362.535156 362.535156 L 12.464844 362.535156 Z M 12.464844 12.464844 " clip-rule="nonzero"/></clipPath><clipPath id="60c78a0bf9"><path d="M 49.964844 12.464844 L 325.035156 12.464844 C 334.980469 12.464844 344.519531 16.414062 351.550781 23.449219 C 358.585938 30.480469 362.535156 40.019531 362.535156 49.964844 L 362.535156 325.035156 C 362.535156 334.980469 358.585938 344.519531 351.550781 351.550781 C 344.519531 358.585938 334.980469 362.535156 325.035156 362.535156 L 49.964844 362.535156 C 40.019531 362.535156 30.480469 358.585938 23.449219 351.550781 C 16.414062 344.519531 12.464844 334.980469 12.464844 325.035156 L 12.464844 49.964844 C 12.464844 40.019531 16.414062 30.480469 23.449219 23.449219 C 30.480469 16.414062 40.019531 12.464844 49.964844 12.464844 Z M 49.964844 12.464844 " clip-rule="nonzero"/></clipPath><clipPath id="e4a8680c34"><path d="M 0.464844 0.464844 L 350.535156 0.464844 L 350.535156 350.535156 L 0.464844 350.535156 Z M 0.464844 0.464844 " clip-rule="nonzero"/></clipPath><clipPath id="561d9a81bc"><path d="M 37.964844 0.464844 L 313.035156 0.464844 C 322.980469 0.464844 332.519531 4.414062 339.550781 11.449219 C 346.585938 18.480469 350.535156 28.019531 350.535156 37.964844 L 350.535156 313.035156 C 350.535156 322.980469 346.585938 332.519531 339.550781 339.550781 C 332.519531 346.585938 322.980469 350.535156 313.035156 350.535156 L 37.964844 350.535156 C 28.019531 350.535156 18.480469 346.585938 11.449219 339.550781 C 4.414062 332.519531 0.464844 322.980469 0.464844 313.035156 L 0.464844 37.964844 C 0.464844 28.019531 4.414062 18.480469 11.449219 11.449219 C 18.480469 4.414062 28.019531 0.464844 37.964844 0.464844 Z M 37.964844 0.464844 " clip-rule="nonzero"/></clipPath><clipPath id="4cc22ee11e"><rect x="0" width="351" y="0" height="351"/></clipPath><clipPath id="817a331d15"><path d="M 12.464844 12.464844 L 362.714844 12.464844 L 362.714844 362.714844 L 12.464844 362.714844 Z M 12.464844 12.464844 " clip-rule="nonzero"/></clipPath></defs><g clip-path="url(#c71f119e04)"><g clip-path="url(#60c78a0bf9)"><g transform="matrix(1, 0, 0, 1, 12, 12)"><g clip-path="url(#4cc22ee11e)"><g clip-path="url(#e4a8680c34)"><g clip-path="url(#561d9a81bc)"><path fill="#ffffff" d="M 0.464844 0.464844 L 350.535156 0.464844 L 350.535156 350.535156 L 0.464844 350.535156 Z M 0.464844 0.464844 " fill-opacity="1" fill-rule="nonzero"/></g></g></g></g></g></g><g clip-path="url(#817a331d15)"><path fill="#ffffff" d="M 362.527344 187.496094 C 362.527344 284.164062 284.164062 362.527344 187.496094 362.527344 C 90.828125 362.527344 12.464844 284.164062 12.464844 187.496094 C 12.464844 90.828125 90.828125 12.464844 187.496094 12.464844 C 284.164062 12.464844 362.527344 90.828125 362.527344 187.496094 " fill-opacity="1" fill-rule="nonzero"/></g><path fill="#ebedef" d="M 353.152344 244.140625 L 281.152344 172.140625 C 274.09375 164.269531 264.269531 158.929688 253.210938 157.636719 L 243.148438 147.59375 C 232.394531 135.941406 217.003906 128.632812 199.894531 128.632812 C 173.199219 128.632812 150.667969 146.410156 143.457031 170.769531 C 142.988281 170.753906 142.519531 170.734375 142.042969 170.734375 C 123.097656 170.734375 107.40625 184.671875 104.660156 202.855469 C 104.515625 202.851562 104.375 202.84375 104.230469 202.84375 C 94.058594 202.84375 85.519531 209.824219 83.140625 219.257812 C 83.074219 219.519531 83.015625 219.78125 82.957031 220.046875 C 82.933594 220.15625 82.910156 220.265625 82.890625 220.375 C 82.835938 220.65625 82.78125 220.9375 82.738281 221.21875 C 82.726562 221.296875 82.71875 221.375 82.707031 221.453125 C 82.667969 221.707031 82.636719 221.964844 82.609375 222.222656 C 82.597656 222.300781 82.589844 222.375 82.582031 222.453125 C 82.554688 222.761719 82.53125 223.074219 82.511719 223.386719 C 82.507812 223.457031 82.503906 223.53125 82.5 223.605469 C 82.484375 223.933594 82.476562 224.265625 82.476562 224.597656 C 82.476562 231.484375 85.675781 237.613281 90.664062 241.601562 L 210.136719 361.074219 C 276.957031 352.441406 331.960938 306.132812 353.152344 244.140625 " fill-opacity="1" fill-rule="nonzero"/><path fill="#000000" d="M 104.230469 202.84375 C 104.375 202.84375 104.515625 202.851562 104.660156 202.855469 C 107.40625 184.671875 123.097656 170.734375 142.042969 170.734375 C 142.519531 170.734375 142.988281 170.753906 143.457031 170.769531 C 150.667969 146.410156 173.199219 128.632812 199.894531 128.632812 C 221.40625 128.632812 240.210938 140.175781 250.480469 157.402344 C 273.910156 158.6875 292.515625 178.089844 292.515625 201.839844 C 292.515625 226.425781 272.582031 246.355469 248 246.355469 L 104.230469 246.355469 C 92.214844 246.355469 82.476562 236.617188 82.476562 224.597656 C 82.476562 212.585938 92.214844 202.84375 104.230469 202.84375 " fill-opacity="1" fill-rule="nonzero"/><path fill="#000000" d="M 248 235.621094 L 104.230469 235.621094 C 94.070312 235.621094 85.535156 228.652344 83.144531 219.230469 C 82.710938 220.949219 82.476562 222.746094 82.476562 224.597656 C 82.476562 236.617188 92.214844 246.355469 104.230469 246.355469 L 248 246.355469 C 272.582031 246.355469 292.515625 226.425781 292.515625 201.839844 C 292.515625 200.023438 292.390625 198.234375 292.179688 196.472656 C 289.527344 218.527344 270.769531 235.621094 248 235.621094 " fill-opacity="1" fill-rule="nonzero"/></svg>