<svg xmlns="http://www.w3.org/2000/svg" xmlns:xlink="http://www.w3.org/1999/xlink" width="500" zoomAndPan="magnify" viewBox="0 0 375 374.999991" height="500" preserveAspectRatio="xMidYMid meet" version="1.0"><defs><clipPath id="ce19718a00"><path d="M 18 21.570312 L 356.96875 21.570312 L 356.96875 353.070312 L 18 353.070312 Z M 18 21.570312 " clip-rule="nonzero"/></clipPath></defs><g clip-path="url(#ce19718a00)"><path fill="#233dff" d="M 149.910156 37.667969 C 159.726562 27.335938 173.355469 21.488281 187.605469 21.488281 C 201.855469 21.488281 215.480469 27.335938 225.300781 37.667969 L 250.035156 63.699219 L 285.808594 66.808594 C 300.003906 68.042969 313.074219 75.050781 321.957031 86.191406 C 330.84375 97.335938 334.769531 111.632812 332.8125 125.75 L 327.882812 161.320312 L 347.753906 191.226562 C 355.640625 203.09375 358.3125 217.679688 355.140625 231.574219 C 351.972656 245.46875 343.238281 257.453125 330.980469 264.726562 L 300.097656 283.050781 L 289.105469 317.234375 C 284.742188 330.800781 275.003906 341.984375 262.164062 348.167969 C 249.324219 354.351562 234.507812 354.992188 221.183594 349.945312 L 187.601562 337.222656 L 154.019531 349.945312 C 140.691406 354.992188 125.878906 354.351562 113.039062 348.167969 C 100.199219 341.984375 90.460938 330.800781 86.097656 317.234375 L 75.101562 283.050781 L 44.222656 264.726562 C 31.96875 257.453125 23.234375 245.46875 20.058594 231.574219 C 16.890625 217.679688 19.558594 203.09375 27.445312 191.226562 L 47.320312 161.320312 L 42.390625 125.75 C 40.433594 111.632812 44.359375 97.335938 53.242188 86.191406 C 62.125 75.050781 75.195312 68.042969 89.394531 66.808594 L 125.167969 63.699219 L 149.902344 37.667969 Z M 149.910156 37.667969 " fill-opacity="1" fill-rule="evenodd"/></g><path fill="#ffffff" d="M 120.453125 216.921875 C 113.003906 209.472656 113.003906 197.378906 120.453125 189.929688 C 127.902344 182.480469 139.996094 182.480469 147.445312 189.929688 L 167.046875 209.53125 L 239.929688 136.648438 C 247.375 129.199219 259.472656 129.199219 266.921875 136.648438 C 274.367188 144.097656 274.367188 156.191406 266.921875 163.640625 L 180.542969 250.019531 C 173.089844 257.472656 161.003906 257.472656 153.550781 250.019531 Z M 120.453125 216.921875 " fill-opacity="1" fill-rule="evenodd"/></svg>